<mxfile host="Electron" agent="Mozilla/5.0 (Windows NT 10.0; Win64; x64) AppleWebKit/537.36 (KHTML, like Gecko) draw.io/25.0.2 Chrome/128.0.6613.186 Electron/32.2.5 Safari/537.36" version="25.0.2">
  <diagram name="Page-1" id="KJ3ufw975a3edJ09Eq81">
    <mxGraphModel dx="1195" dy="737" grid="1" gridSize="10" guides="1" tooltips="1" connect="1" arrows="1" fold="1" page="1" pageScale="1" pageWidth="1654" pageHeight="1169" math="0" shadow="0">
      <root>
        <mxCell id="0" />
        <mxCell id="1" parent="0" />
        <mxCell id="nMc6Upp5jJVp4FLjAY4h-1" value="&lt;b&gt;&lt;u&gt;TypeScript&lt;/u&gt;&lt;/b&gt;" style="text;html=1;align=center;verticalAlign=middle;whiteSpace=wrap;rounded=0;" vertex="1" parent="1">
          <mxGeometry x="20" y="10" width="60" height="30" as="geometry" />
        </mxCell>
        <mxCell id="nMc6Upp5jJVp4FLjAY4h-5" style="edgeStyle=orthogonalEdgeStyle;rounded=0;orthogonalLoop=1;jettySize=auto;html=1;exitX=1;exitY=0.5;exitDx=0;exitDy=0;entryX=0;entryY=0.5;entryDx=0;entryDy=0;fontFamily=Helvetica;" edge="1" parent="1" source="nMc6Upp5jJVp4FLjAY4h-2" target="nMc6Upp5jJVp4FLjAY4h-4">
          <mxGeometry relative="1" as="geometry" />
        </mxCell>
        <mxCell id="nMc6Upp5jJVp4FLjAY4h-7" style="edgeStyle=orthogonalEdgeStyle;rounded=0;orthogonalLoop=1;jettySize=auto;html=1;exitX=0;exitY=0.5;exitDx=0;exitDy=0;entryX=1;entryY=0.5;entryDx=0;entryDy=0;fontFamily=Helvetica;" edge="1" parent="1" source="nMc6Upp5jJVp4FLjAY4h-2" target="nMc6Upp5jJVp4FLjAY4h-6">
          <mxGeometry relative="1" as="geometry" />
        </mxCell>
        <mxCell id="nMc6Upp5jJVp4FLjAY4h-15" style="edgeStyle=orthogonalEdgeStyle;rounded=0;orthogonalLoop=1;jettySize=auto;html=1;exitX=0.5;exitY=1;exitDx=0;exitDy=0;entryX=0.5;entryY=0;entryDx=0;entryDy=0;fontFamily=Helvetica;" edge="1" parent="1" source="nMc6Upp5jJVp4FLjAY4h-2" target="nMc6Upp5jJVp4FLjAY4h-12">
          <mxGeometry relative="1" as="geometry" />
        </mxCell>
        <mxCell id="nMc6Upp5jJVp4FLjAY4h-17" style="edgeStyle=orthogonalEdgeStyle;rounded=0;orthogonalLoop=1;jettySize=auto;html=1;exitX=0.5;exitY=1;exitDx=0;exitDy=0;entryX=0.5;entryY=0;entryDx=0;entryDy=0;fontFamily=Helvetica;" edge="1" parent="1" source="nMc6Upp5jJVp4FLjAY4h-2" target="nMc6Upp5jJVp4FLjAY4h-13">
          <mxGeometry relative="1" as="geometry" />
        </mxCell>
        <mxCell id="nMc6Upp5jJVp4FLjAY4h-18" style="edgeStyle=orthogonalEdgeStyle;rounded=0;orthogonalLoop=1;jettySize=auto;html=1;exitX=0.5;exitY=1;exitDx=0;exitDy=0;entryX=0.5;entryY=0;entryDx=0;entryDy=0;fontFamily=Helvetica;" edge="1" parent="1" source="nMc6Upp5jJVp4FLjAY4h-2" target="nMc6Upp5jJVp4FLjAY4h-14">
          <mxGeometry relative="1" as="geometry" />
        </mxCell>
        <mxCell id="nMc6Upp5jJVp4FLjAY4h-20" style="edgeStyle=orthogonalEdgeStyle;rounded=0;orthogonalLoop=1;jettySize=auto;html=1;exitX=0.5;exitY=1;exitDx=0;exitDy=0;entryX=0.5;entryY=0;entryDx=0;entryDy=0;fontFamily=Helvetica;" edge="1" parent="1" source="nMc6Upp5jJVp4FLjAY4h-2" target="nMc6Upp5jJVp4FLjAY4h-19">
          <mxGeometry relative="1" as="geometry" />
        </mxCell>
        <mxCell id="nMc6Upp5jJVp4FLjAY4h-22" style="edgeStyle=orthogonalEdgeStyle;rounded=0;orthogonalLoop=1;jettySize=auto;html=1;exitX=0.5;exitY=1;exitDx=0;exitDy=0;entryX=0.5;entryY=0;entryDx=0;entryDy=0;fontFamily=Helvetica;" edge="1" parent="1" source="nMc6Upp5jJVp4FLjAY4h-2" target="nMc6Upp5jJVp4FLjAY4h-21">
          <mxGeometry relative="1" as="geometry" />
        </mxCell>
        <mxCell id="nMc6Upp5jJVp4FLjAY4h-24" style="edgeStyle=orthogonalEdgeStyle;rounded=0;orthogonalLoop=1;jettySize=auto;html=1;exitX=0.5;exitY=1;exitDx=0;exitDy=0;entryX=0.5;entryY=0;entryDx=0;entryDy=0;fontFamily=Helvetica;" edge="1" parent="1" source="nMc6Upp5jJVp4FLjAY4h-2" target="nMc6Upp5jJVp4FLjAY4h-23">
          <mxGeometry relative="1" as="geometry">
            <Array as="points">
              <mxPoint x="370" y="155" />
              <mxPoint x="605" y="155" />
            </Array>
          </mxGeometry>
        </mxCell>
        <mxCell id="nMc6Upp5jJVp4FLjAY4h-2" value="&lt;div&gt;&lt;font&gt;any&lt;/font&gt;&lt;/div&gt;" style="text;html=1;align=center;verticalAlign=middle;whiteSpace=wrap;rounded=0;fontFamily=Helvetica;" vertex="1" parent="1">
          <mxGeometry x="350" y="105" width="40" height="20" as="geometry" />
        </mxCell>
        <mxCell id="nMc6Upp5jJVp4FLjAY4h-4" value="&lt;div&gt;&lt;font&gt;null&lt;/font&gt;&lt;/div&gt;" style="text;html=1;align=center;verticalAlign=middle;whiteSpace=wrap;rounded=0;fontFamily=Helvetica;" vertex="1" parent="1">
          <mxGeometry x="440" y="105" width="40" height="20" as="geometry" />
        </mxCell>
        <mxCell id="nMc6Upp5jJVp4FLjAY4h-9" style="edgeStyle=orthogonalEdgeStyle;rounded=0;orthogonalLoop=1;jettySize=auto;html=1;exitX=0;exitY=0.5;exitDx=0;exitDy=0;entryX=1;entryY=0.5;entryDx=0;entryDy=0;fontFamily=Helvetica;" edge="1" parent="1" source="nMc6Upp5jJVp4FLjAY4h-6" target="nMc6Upp5jJVp4FLjAY4h-8">
          <mxGeometry relative="1" as="geometry" />
        </mxCell>
        <mxCell id="nMc6Upp5jJVp4FLjAY4h-6" value="&lt;div&gt;&lt;font&gt;void&lt;/font&gt;&lt;/div&gt;" style="text;html=1;align=center;verticalAlign=middle;whiteSpace=wrap;rounded=0;fontFamily=Helvetica;" vertex="1" parent="1">
          <mxGeometry x="260" y="105" width="40" height="20" as="geometry" />
        </mxCell>
        <mxCell id="nMc6Upp5jJVp4FLjAY4h-8" value="&lt;div&gt;&lt;font&gt;undefined&lt;/font&gt;&lt;/div&gt;" style="text;html=1;align=center;verticalAlign=middle;whiteSpace=wrap;rounded=0;fontFamily=Helvetica;" vertex="1" parent="1">
          <mxGeometry x="150" y="105" width="70" height="20" as="geometry" />
        </mxCell>
        <mxCell id="nMc6Upp5jJVp4FLjAY4h-11" style="edgeStyle=orthogonalEdgeStyle;rounded=0;orthogonalLoop=1;jettySize=auto;html=1;exitX=0.5;exitY=1;exitDx=0;exitDy=0;entryX=0.5;entryY=0;entryDx=0;entryDy=0;fontFamily=Helvetica;" edge="1" parent="1" source="nMc6Upp5jJVp4FLjAY4h-10" target="nMc6Upp5jJVp4FLjAY4h-2">
          <mxGeometry relative="1" as="geometry" />
        </mxCell>
        <mxCell id="nMc6Upp5jJVp4FLjAY4h-10" value="&lt;div&gt;&lt;font&gt;unknown&lt;/font&gt;&lt;/div&gt;" style="text;html=1;align=center;verticalAlign=middle;whiteSpace=wrap;rounded=0;fontFamily=Helvetica;" vertex="1" parent="1">
          <mxGeometry x="340" y="60" width="60" height="20" as="geometry" />
        </mxCell>
        <mxCell id="nMc6Upp5jJVp4FLjAY4h-26" style="edgeStyle=orthogonalEdgeStyle;rounded=0;orthogonalLoop=1;jettySize=auto;html=1;exitX=0.5;exitY=1;exitDx=0;exitDy=0;entryX=0.5;entryY=0;entryDx=0;entryDy=0;" edge="1" parent="1" source="nMc6Upp5jJVp4FLjAY4h-12" target="nMc6Upp5jJVp4FLjAY4h-25">
          <mxGeometry relative="1" as="geometry" />
        </mxCell>
        <mxCell id="nMc6Upp5jJVp4FLjAY4h-12" value="&lt;div&gt;&lt;font&gt;number&lt;/font&gt;&lt;/div&gt;" style="text;html=1;align=center;verticalAlign=middle;whiteSpace=wrap;rounded=0;fontFamily=Helvetica;" vertex="1" parent="1">
          <mxGeometry x="155" y="185" width="60" height="20" as="geometry" />
        </mxCell>
        <mxCell id="nMc6Upp5jJVp4FLjAY4h-52" style="edgeStyle=orthogonalEdgeStyle;rounded=0;orthogonalLoop=1;jettySize=auto;html=1;exitX=0.5;exitY=1;exitDx=0;exitDy=0;entryX=0;entryY=0.25;entryDx=0;entryDy=0;" edge="1" parent="1" source="nMc6Upp5jJVp4FLjAY4h-13" target="nMc6Upp5jJVp4FLjAY4h-27">
          <mxGeometry relative="1" as="geometry" />
        </mxCell>
        <mxCell id="nMc6Upp5jJVp4FLjAY4h-13" value="&lt;div&gt;&lt;font&gt;bigint&lt;/font&gt;&lt;/div&gt;" style="text;html=1;align=center;verticalAlign=middle;whiteSpace=wrap;rounded=0;fontFamily=Helvetica;" vertex="1" parent="1">
          <mxGeometry x="230" y="185" width="50" height="20" as="geometry" />
        </mxCell>
        <mxCell id="nMc6Upp5jJVp4FLjAY4h-51" style="edgeStyle=orthogonalEdgeStyle;rounded=0;orthogonalLoop=1;jettySize=auto;html=1;exitX=0.5;exitY=1;exitDx=0;exitDy=0;entryX=0.25;entryY=0;entryDx=0;entryDy=0;" edge="1" parent="1" source="nMc6Upp5jJVp4FLjAY4h-14" target="nMc6Upp5jJVp4FLjAY4h-27">
          <mxGeometry relative="1" as="geometry" />
        </mxCell>
        <mxCell id="nMc6Upp5jJVp4FLjAY4h-14" value="&lt;div&gt;&lt;font&gt;boolean&lt;/font&gt;&lt;/div&gt;" style="text;html=1;align=center;verticalAlign=middle;whiteSpace=wrap;rounded=0;fontFamily=Helvetica;" vertex="1" parent="1">
          <mxGeometry x="300" y="185" width="50" height="20" as="geometry" />
        </mxCell>
        <mxCell id="nMc6Upp5jJVp4FLjAY4h-32" style="edgeStyle=orthogonalEdgeStyle;rounded=0;orthogonalLoop=1;jettySize=auto;html=1;exitX=0.5;exitY=1;exitDx=0;exitDy=0;entryX=0.5;entryY=0;entryDx=0;entryDy=0;" edge="1" parent="1" source="nMc6Upp5jJVp4FLjAY4h-19" target="nMc6Upp5jJVp4FLjAY4h-31">
          <mxGeometry relative="1" as="geometry" />
        </mxCell>
        <mxCell id="nMc6Upp5jJVp4FLjAY4h-19" value="&lt;div&gt;&lt;font&gt;string&lt;/font&gt;&lt;/div&gt;" style="text;html=1;align=center;verticalAlign=middle;whiteSpace=wrap;rounded=0;fontFamily=Helvetica;" vertex="1" parent="1">
          <mxGeometry x="370" y="185" width="50" height="20" as="geometry" />
        </mxCell>
        <mxCell id="nMc6Upp5jJVp4FLjAY4h-35" style="edgeStyle=orthogonalEdgeStyle;rounded=0;orthogonalLoop=1;jettySize=auto;html=1;exitX=0.5;exitY=1;exitDx=0;exitDy=0;entryX=0.5;entryY=0;entryDx=0;entryDy=0;" edge="1" parent="1" source="nMc6Upp5jJVp4FLjAY4h-21" target="nMc6Upp5jJVp4FLjAY4h-34">
          <mxGeometry relative="1" as="geometry" />
        </mxCell>
        <mxCell id="nMc6Upp5jJVp4FLjAY4h-21" value="&lt;div&gt;&lt;font&gt;symbol&lt;/font&gt;&lt;/div&gt;" style="text;html=1;align=center;verticalAlign=middle;whiteSpace=wrap;rounded=0;fontFamily=Helvetica;" vertex="1" parent="1">
          <mxGeometry x="435" y="185" width="50" height="20" as="geometry" />
        </mxCell>
        <mxCell id="nMc6Upp5jJVp4FLjAY4h-41" style="edgeStyle=orthogonalEdgeStyle;rounded=0;orthogonalLoop=1;jettySize=auto;html=1;exitX=0.5;exitY=1;exitDx=0;exitDy=0;entryX=0.5;entryY=0;entryDx=0;entryDy=0;" edge="1" parent="1" source="nMc6Upp5jJVp4FLjAY4h-23" target="nMc6Upp5jJVp4FLjAY4h-37">
          <mxGeometry relative="1" as="geometry" />
        </mxCell>
        <mxCell id="nMc6Upp5jJVp4FLjAY4h-42" style="edgeStyle=orthogonalEdgeStyle;rounded=0;orthogonalLoop=1;jettySize=auto;html=1;exitX=0.5;exitY=1;exitDx=0;exitDy=0;entryX=0.5;entryY=0;entryDx=0;entryDy=0;" edge="1" parent="1" source="nMc6Upp5jJVp4FLjAY4h-23" target="nMc6Upp5jJVp4FLjAY4h-39">
          <mxGeometry relative="1" as="geometry" />
        </mxCell>
        <mxCell id="nMc6Upp5jJVp4FLjAY4h-43" style="edgeStyle=orthogonalEdgeStyle;rounded=0;orthogonalLoop=1;jettySize=auto;html=1;exitX=0.5;exitY=1;exitDx=0;exitDy=0;entryX=0.5;entryY=0;entryDx=0;entryDy=0;" edge="1" parent="1" source="nMc6Upp5jJVp4FLjAY4h-23" target="nMc6Upp5jJVp4FLjAY4h-40">
          <mxGeometry relative="1" as="geometry" />
        </mxCell>
        <mxCell id="nMc6Upp5jJVp4FLjAY4h-23" value="&lt;div&gt;&lt;font&gt;Object types&lt;/font&gt;&lt;/div&gt;" style="text;html=1;align=center;verticalAlign=middle;whiteSpace=wrap;rounded=0;fontFamily=Helvetica;" vertex="1" parent="1">
          <mxGeometry x="560" y="170" width="90" height="20" as="geometry" />
        </mxCell>
        <mxCell id="nMc6Upp5jJVp4FLjAY4h-53" style="edgeStyle=orthogonalEdgeStyle;rounded=0;orthogonalLoop=1;jettySize=auto;html=1;exitX=0.5;exitY=1;exitDx=0;exitDy=0;entryX=0;entryY=0.75;entryDx=0;entryDy=0;" edge="1" parent="1" source="nMc6Upp5jJVp4FLjAY4h-25" target="nMc6Upp5jJVp4FLjAY4h-27">
          <mxGeometry relative="1" as="geometry" />
        </mxCell>
        <mxCell id="nMc6Upp5jJVp4FLjAY4h-25" value="&lt;div&gt;&lt;font&gt;number enums&lt;/font&gt;&lt;/div&gt;" style="text;html=1;align=center;verticalAlign=middle;whiteSpace=wrap;rounded=0;fontFamily=Helvetica;" vertex="1" parent="1">
          <mxGeometry x="160" y="225" width="50" height="30" as="geometry" />
        </mxCell>
        <mxCell id="nMc6Upp5jJVp4FLjAY4h-27" value="&lt;div&gt;&lt;font&gt;never&lt;/font&gt;&lt;/div&gt;" style="text;html=1;align=center;verticalAlign=middle;whiteSpace=wrap;rounded=0;fontFamily=Helvetica;" vertex="1" parent="1">
          <mxGeometry x="350" y="345" width="50" height="20" as="geometry" />
        </mxCell>
        <mxCell id="nMc6Upp5jJVp4FLjAY4h-50" style="edgeStyle=orthogonalEdgeStyle;rounded=0;orthogonalLoop=1;jettySize=auto;html=1;exitX=0.5;exitY=1;exitDx=0;exitDy=0;entryX=0.5;entryY=0;entryDx=0;entryDy=0;" edge="1" parent="1" source="nMc6Upp5jJVp4FLjAY4h-31" target="nMc6Upp5jJVp4FLjAY4h-27">
          <mxGeometry relative="1" as="geometry" />
        </mxCell>
        <mxCell id="nMc6Upp5jJVp4FLjAY4h-31" value="&lt;div&gt;&lt;font&gt;string enums&lt;/font&gt;&lt;/div&gt;" style="text;html=1;align=center;verticalAlign=middle;whiteSpace=wrap;rounded=0;fontFamily=Helvetica;" vertex="1" parent="1">
          <mxGeometry x="370" y="225" width="50" height="30" as="geometry" />
        </mxCell>
        <mxCell id="nMc6Upp5jJVp4FLjAY4h-49" style="edgeStyle=orthogonalEdgeStyle;rounded=0;orthogonalLoop=1;jettySize=auto;html=1;exitX=0.5;exitY=1;exitDx=0;exitDy=0;entryX=0.75;entryY=0;entryDx=0;entryDy=0;" edge="1" parent="1" source="nMc6Upp5jJVp4FLjAY4h-34" target="nMc6Upp5jJVp4FLjAY4h-27">
          <mxGeometry relative="1" as="geometry" />
        </mxCell>
        <mxCell id="nMc6Upp5jJVp4FLjAY4h-34" value="&lt;div&gt;&lt;font&gt;unique symbols&lt;/font&gt;&lt;/div&gt;" style="text;html=1;align=center;verticalAlign=middle;whiteSpace=wrap;rounded=0;fontFamily=Helvetica;" vertex="1" parent="1">
          <mxGeometry x="435" y="225" width="50" height="30" as="geometry" />
        </mxCell>
        <mxCell id="nMc6Upp5jJVp4FLjAY4h-45" style="edgeStyle=orthogonalEdgeStyle;rounded=0;orthogonalLoop=1;jettySize=auto;html=1;exitX=0.5;exitY=1;exitDx=0;exitDy=0;entryX=0.5;entryY=0;entryDx=0;entryDy=0;" edge="1" parent="1" source="nMc6Upp5jJVp4FLjAY4h-37" target="nMc6Upp5jJVp4FLjAY4h-44">
          <mxGeometry relative="1" as="geometry" />
        </mxCell>
        <mxCell id="nMc6Upp5jJVp4FLjAY4h-37" value="&lt;div&gt;&lt;font&gt;Array types&lt;/font&gt;&lt;/div&gt;" style="text;html=1;align=center;verticalAlign=middle;whiteSpace=wrap;rounded=0;fontFamily=Helvetica;" vertex="1" parent="1">
          <mxGeometry x="510" y="235" width="50" height="30" as="geometry" />
        </mxCell>
        <mxCell id="nMc6Upp5jJVp4FLjAY4h-47" style="edgeStyle=orthogonalEdgeStyle;rounded=0;orthogonalLoop=1;jettySize=auto;html=1;exitX=0.5;exitY=1;exitDx=0;exitDy=0;entryX=1;entryY=0.5;entryDx=0;entryDy=0;" edge="1" parent="1" source="nMc6Upp5jJVp4FLjAY4h-39" target="nMc6Upp5jJVp4FLjAY4h-27">
          <mxGeometry relative="1" as="geometry" />
        </mxCell>
        <mxCell id="nMc6Upp5jJVp4FLjAY4h-39" value="&lt;div&gt;&lt;font&gt;Function types&lt;/font&gt;&lt;/div&gt;" style="text;html=1;align=center;verticalAlign=middle;whiteSpace=wrap;rounded=0;fontFamily=Helvetica;" vertex="1" parent="1">
          <mxGeometry x="570" y="235" width="50" height="30" as="geometry" />
        </mxCell>
        <mxCell id="nMc6Upp5jJVp4FLjAY4h-48" style="edgeStyle=orthogonalEdgeStyle;rounded=0;orthogonalLoop=1;jettySize=auto;html=1;exitX=0.5;exitY=1;exitDx=0;exitDy=0;entryX=1;entryY=0.75;entryDx=0;entryDy=0;" edge="1" parent="1" source="nMc6Upp5jJVp4FLjAY4h-40" target="nMc6Upp5jJVp4FLjAY4h-27">
          <mxGeometry relative="1" as="geometry" />
        </mxCell>
        <mxCell id="nMc6Upp5jJVp4FLjAY4h-40" value="&lt;div&gt;&lt;font&gt;Constructor types&lt;/font&gt;&lt;/div&gt;" style="text;html=1;align=center;verticalAlign=middle;whiteSpace=wrap;rounded=0;fontFamily=Helvetica;" vertex="1" parent="1">
          <mxGeometry x="630" y="235" width="70" height="30" as="geometry" />
        </mxCell>
        <mxCell id="nMc6Upp5jJVp4FLjAY4h-46" style="edgeStyle=orthogonalEdgeStyle;rounded=0;orthogonalLoop=1;jettySize=auto;html=1;exitX=0.5;exitY=1;exitDx=0;exitDy=0;entryX=1;entryY=0.25;entryDx=0;entryDy=0;" edge="1" parent="1" source="nMc6Upp5jJVp4FLjAY4h-44" target="nMc6Upp5jJVp4FLjAY4h-27">
          <mxGeometry relative="1" as="geometry" />
        </mxCell>
        <mxCell id="nMc6Upp5jJVp4FLjAY4h-44" value="&lt;div&gt;&lt;font&gt;Tuple types&lt;/font&gt;&lt;/div&gt;" style="text;html=1;align=center;verticalAlign=middle;whiteSpace=wrap;rounded=0;fontFamily=Helvetica;" vertex="1" parent="1">
          <mxGeometry x="510" y="295" width="50" height="30" as="geometry" />
        </mxCell>
        <mxCell id="nMc6Upp5jJVp4FLjAY4h-55" style="rounded=0;orthogonalLoop=1;jettySize=auto;html=1;exitX=0;exitY=0.5;exitDx=0;exitDy=0;entryX=1;entryY=0;entryDx=0;entryDy=0;endArrow=oval;endFill=1;dashed=1;dashPattern=1 2;" edge="1" parent="1" source="nMc6Upp5jJVp4FLjAY4h-54" target="nMc6Upp5jJVp4FLjAY4h-2">
          <mxGeometry relative="1" as="geometry" />
        </mxCell>
        <mxCell id="nMc6Upp5jJVp4FLjAY4h-54" value="avoid (behaves like JS)" style="text;html=1;align=center;verticalAlign=middle;whiteSpace=wrap;rounded=0;" vertex="1" parent="1">
          <mxGeometry x="435" y="60" width="90" height="25" as="geometry" />
        </mxCell>
        <mxCell id="nMc6Upp5jJVp4FLjAY4h-56" value="value can&#39;t be used until is is refined (with typeof / instanceof)" style="text;html=1;align=center;verticalAlign=middle;whiteSpace=wrap;rounded=0;" vertex="1" parent="1">
          <mxGeometry x="200" y="2.5" width="120" height="45" as="geometry" />
        </mxCell>
        <mxCell id="nMc6Upp5jJVp4FLjAY4h-57" style="rounded=0;orthogonalLoop=1;jettySize=auto;html=1;exitX=1;exitY=0.5;exitDx=0;exitDy=0;entryX=0.5;entryY=0;entryDx=0;entryDy=0;endArrow=oval;endFill=1;dashed=1;dashPattern=1 2;" edge="1" parent="1" source="nMc6Upp5jJVp4FLjAY4h-56" target="nMc6Upp5jJVp4FLjAY4h-10">
          <mxGeometry relative="1" as="geometry">
            <mxPoint x="445" y="83" as="sourcePoint" />
            <mxPoint x="400" y="115" as="targetPoint" />
          </mxGeometry>
        </mxCell>
        <mxCell id="nMc6Upp5jJVp4FLjAY4h-58" value="return type of a function" style="text;html=1;align=center;verticalAlign=middle;whiteSpace=wrap;rounded=0;" vertex="1" parent="1">
          <mxGeometry x="215" y="55" width="90" height="35" as="geometry" />
        </mxCell>
        <mxCell id="nMc6Upp5jJVp4FLjAY4h-59" style="rounded=0;orthogonalLoop=1;jettySize=auto;html=1;exitX=0.5;exitY=1;exitDx=0;exitDy=0;entryX=0.5;entryY=0;entryDx=0;entryDy=0;endArrow=oval;endFill=1;dashed=1;dashPattern=1 2;" edge="1" parent="1" source="nMc6Upp5jJVp4FLjAY4h-58" target="nMc6Upp5jJVp4FLjAY4h-6">
          <mxGeometry relative="1" as="geometry">
            <mxPoint x="330" y="35" as="sourcePoint" />
            <mxPoint x="380" y="70" as="targetPoint" />
          </mxGeometry>
        </mxCell>
        <mxCell id="nMc6Upp5jJVp4FLjAY4h-60" value="variable that hasn&#39;t been assigned a value yet" style="text;html=1;align=center;verticalAlign=middle;whiteSpace=wrap;rounded=0;" vertex="1" parent="1">
          <mxGeometry x="80" y="30" width="110" height="55" as="geometry" />
        </mxCell>
        <mxCell id="nMc6Upp5jJVp4FLjAY4h-62" style="rounded=0;orthogonalLoop=1;jettySize=auto;html=1;exitX=0.5;exitY=1;exitDx=0;exitDy=0;entryX=0.5;entryY=0;entryDx=0;entryDy=0;endArrow=oval;endFill=1;dashed=1;dashPattern=1 2;" edge="1" parent="1" source="nMc6Upp5jJVp4FLjAY4h-60" target="nMc6Upp5jJVp4FLjAY4h-8">
          <mxGeometry relative="1" as="geometry">
            <mxPoint x="270" y="100" as="sourcePoint" />
            <mxPoint x="290" y="115" as="targetPoint" />
          </mxGeometry>
        </mxCell>
        <mxCell id="nMc6Upp5jJVp4FLjAY4h-63" value="1_000_000, Infinity, NaN" style="text;html=1;align=center;verticalAlign=middle;whiteSpace=wrap;rounded=0;" vertex="1" parent="1">
          <mxGeometry x="40" y="135" width="80" height="35" as="geometry" />
        </mxCell>
        <mxCell id="nMc6Upp5jJVp4FLjAY4h-64" style="rounded=0;orthogonalLoop=1;jettySize=auto;html=1;exitX=1;exitY=0.5;exitDx=0;exitDy=0;entryX=0;entryY=0.5;entryDx=0;entryDy=0;endArrow=oval;endFill=1;dashed=1;dashPattern=1 2;" edge="1" parent="1" source="nMc6Upp5jJVp4FLjAY4h-63" target="nMc6Upp5jJVp4FLjAY4h-12">
          <mxGeometry relative="1" as="geometry">
            <mxPoint x="70" y="225" as="sourcePoint" />
            <mxPoint x="120" y="245" as="targetPoint" />
          </mxGeometry>
        </mxCell>
        <mxCell id="nMc6Upp5jJVp4FLjAY4h-65" value="123n" style="text;html=1;align=center;verticalAlign=middle;whiteSpace=wrap;rounded=0;" vertex="1" parent="1">
          <mxGeometry x="120" y="125" width="40" height="15" as="geometry" />
        </mxCell>
        <mxCell id="nMc6Upp5jJVp4FLjAY4h-66" style="rounded=0;orthogonalLoop=1;jettySize=auto;html=1;exitX=1;exitY=0.5;exitDx=0;exitDy=0;entryX=0;entryY=0.5;entryDx=0;entryDy=0;endArrow=oval;endFill=1;dashed=1;dashPattern=1 2;" edge="1" parent="1" source="nMc6Upp5jJVp4FLjAY4h-65" target="nMc6Upp5jJVp4FLjAY4h-13">
          <mxGeometry relative="1" as="geometry">
            <mxPoint x="130" y="163" as="sourcePoint" />
            <mxPoint x="165" y="205" as="targetPoint" />
          </mxGeometry>
        </mxCell>
        <mxCell id="nMc6Upp5jJVp4FLjAY4h-67" value="type of a function that never returns (infinite loop or throws an exception)" style="text;html=1;align=center;verticalAlign=middle;whiteSpace=wrap;rounded=0;" vertex="1" parent="1">
          <mxGeometry x="280" y="390" width="150" height="50" as="geometry" />
        </mxCell>
        <mxCell id="nMc6Upp5jJVp4FLjAY4h-68" style="rounded=0;orthogonalLoop=1;jettySize=auto;html=1;exitX=0.5;exitY=0;exitDx=0;exitDy=0;entryX=0.5;entryY=1;entryDx=0;entryDy=0;endArrow=oval;endFill=1;dashed=1;dashPattern=1 2;" edge="1" parent="1" source="nMc6Upp5jJVp4FLjAY4h-67" target="nMc6Upp5jJVp4FLjAY4h-27">
          <mxGeometry relative="1" as="geometry">
            <mxPoint x="510" y="470" as="sourcePoint" />
            <mxPoint x="465" y="502" as="targetPoint" />
          </mxGeometry>
        </mxCell>
        <mxCell id="nMc6Upp5jJVp4FLjAY4h-69" value="readonly &amp;lt;type&amp;gt;[]&lt;div&gt;Array&amp;lt;T&amp;gt;&lt;/div&gt;" style="text;html=1;align=left;verticalAlign=middle;whiteSpace=wrap;rounded=0;" vertex="1" parent="1">
          <mxGeometry x="690" y="295" width="100" height="45" as="geometry" />
        </mxCell>
        <mxCell id="nMc6Upp5jJVp4FLjAY4h-70" style="rounded=0;orthogonalLoop=1;jettySize=auto;html=1;exitX=0;exitY=0.5;exitDx=0;exitDy=0;entryX=1;entryY=1;entryDx=0;entryDy=0;endArrow=oval;endFill=1;dashed=1;dashPattern=1 2;" edge="1" parent="1" source="nMc6Upp5jJVp4FLjAY4h-69" target="nMc6Upp5jJVp4FLjAY4h-37">
          <mxGeometry relative="1" as="geometry">
            <mxPoint x="815" y="240" as="sourcePoint" />
            <mxPoint x="770" y="272" as="targetPoint" />
          </mxGeometry>
        </mxCell>
        <mxCell id="nMc6Upp5jJVp4FLjAY4h-71" value="fixed length array&lt;div&gt;has to be explicitly typed&lt;/div&gt;&lt;div&gt;[&amp;lt;type&amp;gt;, ...]&lt;br&gt;can use ? for optional elements&lt;/div&gt;&lt;div&gt;[&amp;lt;type&amp;gt;, ...&amp;lt;type&amp;gt;[]] for a min. length of 1&lt;/div&gt;" style="text;html=1;align=left;verticalAlign=middle;whiteSpace=wrap;rounded=0;" vertex="1" parent="1">
          <mxGeometry x="680" y="365" width="230" height="65" as="geometry" />
        </mxCell>
        <mxCell id="nMc6Upp5jJVp4FLjAY4h-72" style="rounded=0;orthogonalLoop=1;jettySize=auto;html=1;exitX=0;exitY=0.5;exitDx=0;exitDy=0;entryX=1;entryY=0.5;entryDx=0;entryDy=0;endArrow=oval;endFill=1;dashed=1;dashPattern=1 2;" edge="1" parent="1" source="nMc6Upp5jJVp4FLjAY4h-71" target="nMc6Upp5jJVp4FLjAY4h-44">
          <mxGeometry relative="1" as="geometry">
            <mxPoint x="700" y="313" as="sourcePoint" />
            <mxPoint x="570" y="275" as="targetPoint" />
          </mxGeometry>
        </mxCell>
        <mxCell id="nMc6Upp5jJVp4FLjAY4h-73" value="structural typing not nominal typing (properties, not name)" style="text;html=1;align=center;verticalAlign=middle;whiteSpace=wrap;rounded=0;" vertex="1" parent="1">
          <mxGeometry x="680" y="115" width="130" height="35" as="geometry" />
        </mxCell>
        <mxCell id="nMc6Upp5jJVp4FLjAY4h-74" style="rounded=0;orthogonalLoop=1;jettySize=auto;html=1;exitX=0;exitY=0.5;exitDx=0;exitDy=0;entryX=0.75;entryY=0;entryDx=0;entryDy=0;endArrow=oval;endFill=1;dashed=1;dashPattern=1 2;" edge="1" parent="1" source="nMc6Upp5jJVp4FLjAY4h-73" target="nMc6Upp5jJVp4FLjAY4h-23">
          <mxGeometry relative="1" as="geometry">
            <mxPoint x="850" y="223" as="sourcePoint" />
            <mxPoint x="720" y="185" as="targetPoint" />
          </mxGeometry>
        </mxCell>
        <mxCell id="nMc6Upp5jJVp4FLjAY4h-75" value="let &amp;lt;name&amp;gt;: &amp;lt;type&amp;gt; = ..." style="text;html=1;align=left;verticalAlign=middle;whiteSpace=wrap;rounded=0;spacingLeft=6;" vertex="1" parent="1">
          <mxGeometry x="827" y="12.5" width="173" height="25" as="geometry" />
        </mxCell>
        <mxCell id="nMc6Upp5jJVp4FLjAY4h-76" value="const &amp;lt;name&amp;gt;: &amp;lt;type&amp;gt; = ..." style="text;html=1;align=left;verticalAlign=middle;whiteSpace=wrap;rounded=0;spacingLeft=6;" vertex="1" parent="1">
          <mxGeometry x="827" y="37.5" width="163" height="20" as="geometry" />
        </mxCell>
        <mxCell id="nMc6Upp5jJVp4FLjAY4h-77" value="infers the most narrow type" style="text;html=1;align=center;verticalAlign=middle;whiteSpace=wrap;rounded=0;" vertex="1" parent="1">
          <mxGeometry x="680" y="30" width="100" height="30" as="geometry" />
        </mxCell>
        <mxCell id="nMc6Upp5jJVp4FLjAY4h-78" style="rounded=0;orthogonalLoop=1;jettySize=auto;html=1;exitX=1;exitY=0.5;exitDx=0;exitDy=0;entryX=0;entryY=0.5;entryDx=0;entryDy=0;endArrow=oval;endFill=1;dashed=1;dashPattern=1 2;" edge="1" parent="1" source="nMc6Upp5jJVp4FLjAY4h-77" target="nMc6Upp5jJVp4FLjAY4h-76">
          <mxGeometry relative="1" as="geometry">
            <mxPoint x="690" y="150.5" as="sourcePoint" />
            <mxPoint x="660" y="172.5" as="targetPoint" />
          </mxGeometry>
        </mxCell>
        <mxCell id="nMc6Upp5jJVp4FLjAY4h-79" value="" style="shape=curlyBracket;whiteSpace=wrap;html=1;rounded=1;flipH=1;labelPosition=right;verticalLabelPosition=middle;align=left;verticalAlign=middle;" vertex="1" parent="1">
          <mxGeometry x="1040" y="20" width="20" height="60" as="geometry" />
        </mxCell>
        <mxCell id="nMc6Upp5jJVp4FLjAY4h-80" value="block scoped" style="text;html=1;align=left;verticalAlign=middle;whiteSpace=wrap;rounded=0;spacingLeft=6;" vertex="1" parent="1">
          <mxGeometry x="1060" y="35" width="90" height="25" as="geometry" />
        </mxCell>
        <mxCell id="nMc6Upp5jJVp4FLjAY4h-81" value="Type alias: type &amp;lt;name&amp;gt; = &amp;lt;TS type&amp;gt;" style="text;html=1;align=left;verticalAlign=middle;whiteSpace=wrap;rounded=0;spacingLeft=6;" vertex="1" parent="1">
          <mxGeometry x="827" y="62.5" width="223" height="20" as="geometry" />
        </mxCell>
        <mxCell id="nMc6Upp5jJVp4FLjAY4h-82" value="Type union: &amp;lt;type&amp;gt; | &amp;lt;type&amp;gt;" style="text;html=1;align=left;verticalAlign=middle;whiteSpace=wrap;rounded=0;spacingLeft=6;" vertex="1" parent="1">
          <mxGeometry x="827" y="90" width="223" height="20" as="geometry" />
        </mxCell>
        <mxCell id="nMc6Upp5jJVp4FLjAY4h-83" value="&lt;div&gt;Object literal notation (shape):&lt;/div&gt;{&lt;div&gt;&lt;span style=&quot;white-space: pre;&quot;&gt;&#x9;&lt;/span&gt;readonly &amp;lt;name&amp;gt;: &amp;lt;type&amp;gt;&lt;br&gt;&lt;/div&gt;&lt;div&gt;&lt;span style=&quot;white-space: pre;&quot;&gt;&#x9;&lt;/span&gt;&amp;lt;name&amp;gt; ?: &amp;lt;type&amp;gt;&lt;br&gt;&lt;/div&gt;&lt;div&gt;&lt;span style=&quot;white-space: pre;&quot;&gt;&#x9;&lt;/span&gt;[key : &amp;lt;type&amp;gt;]: &amp;lt;type&amp;gt;&lt;br&gt;&lt;/div&gt;&lt;div style=&quot;&quot;&gt;}&lt;/div&gt;" style="text;html=1;align=left;verticalAlign=middle;whiteSpace=wrap;rounded=0;" vertex="1" parent="1">
          <mxGeometry x="750" y="165" width="190" height="95" as="geometry" />
        </mxCell>
        <mxCell id="nMc6Upp5jJVp4FLjAY4h-84" style="rounded=0;orthogonalLoop=1;jettySize=auto;html=1;exitX=0;exitY=0.5;exitDx=0;exitDy=0;entryX=1;entryY=0.75;entryDx=0;entryDy=0;endArrow=oval;endFill=1;dashed=1;dashPattern=1 2;" edge="1" parent="1" source="nMc6Upp5jJVp4FLjAY4h-83" target="nMc6Upp5jJVp4FLjAY4h-23">
          <mxGeometry relative="1" as="geometry">
            <mxPoint x="690" y="143" as="sourcePoint" />
            <mxPoint x="661" y="182" as="targetPoint" />
          </mxGeometry>
        </mxCell>
        <mxCell id="nMc6Upp5jJVp4FLjAY4h-85" value="any&amp;nbsp; number of properties (&#39;index signature&#39;)" style="text;html=1;align=center;verticalAlign=middle;whiteSpace=wrap;rounded=0;" vertex="1" parent="1">
          <mxGeometry x="810" y="280" width="160" height="30" as="geometry" />
        </mxCell>
        <mxCell id="nMc6Upp5jJVp4FLjAY4h-86" style="rounded=0;orthogonalLoop=1;jettySize=auto;html=1;exitX=0.5;exitY=0;exitDx=0;exitDy=0;entryX=0.5;entryY=1;entryDx=0;entryDy=0;endArrow=oval;endFill=1;dashed=1;dashPattern=1 2;" edge="1" parent="1" source="nMc6Upp5jJVp4FLjAY4h-85" target="nMc6Upp5jJVp4FLjAY4h-83">
          <mxGeometry relative="1" as="geometry">
            <mxPoint x="760" y="223" as="sourcePoint" />
            <mxPoint x="660" y="195" as="targetPoint" />
          </mxGeometry>
        </mxCell>
        <mxCell id="nMc6Upp5jJVp4FLjAY4h-87" value="&lt;b&gt;Generic (polymorphic) type parameter&lt;/b&gt;" style="text;html=1;align=left;verticalAlign=middle;whiteSpace=wrap;rounded=0;spacingLeft=6;" vertex="1" parent="1">
          <mxGeometry x="40" y="680" width="230" height="20" as="geometry" />
        </mxCell>
        <mxCell id="nMc6Upp5jJVp4FLjAY4h-88" value="type Fn = {&lt;div&gt;&lt;span style=&quot;white-space: pre;&quot;&gt;&#x9;&lt;/span&gt;&amp;lt;T&amp;gt; ( ... )&lt;br&gt;&lt;/div&gt;&lt;div&gt;}&lt;/div&gt;" style="text;html=1;align=left;verticalAlign=middle;whiteSpace=wrap;rounded=0;spacingLeft=6;" vertex="1" parent="1">
          <mxGeometry x="40" y="700" width="100" height="50" as="geometry" />
        </mxCell>
        <mxCell id="nMc6Upp5jJVp4FLjAY4h-89" value="type Fn&amp;lt;T&amp;gt; = { ... }" style="text;html=1;align=left;verticalAlign=middle;whiteSpace=wrap;rounded=0;spacingLeft=6;" vertex="1" parent="1">
          <mxGeometry x="40" y="750" width="120" height="20" as="geometry" />
        </mxCell>
        <mxCell id="nMc6Upp5jJVp4FLjAY4h-90" value="scoped to type alias" style="text;html=1;align=center;verticalAlign=middle;whiteSpace=wrap;rounded=0;spacingLeft=6;" vertex="1" parent="1">
          <mxGeometry x="210" y="740" width="70" height="25" as="geometry" />
        </mxCell>
        <mxCell id="nMc6Upp5jJVp4FLjAY4h-91" style="rounded=0;orthogonalLoop=1;jettySize=auto;html=1;exitX=0;exitY=0.5;exitDx=0;exitDy=0;entryX=1;entryY=0.5;entryDx=0;entryDy=0;endArrow=oval;endFill=1;dashed=1;dashPattern=1 2;" edge="1" parent="1" source="nMc6Upp5jJVp4FLjAY4h-90" target="nMc6Upp5jJVp4FLjAY4h-89">
          <mxGeometry relative="1" as="geometry">
            <mxPoint x="295" y="830" as="sourcePoint" />
            <mxPoint x="250" y="810" as="targetPoint" />
          </mxGeometry>
        </mxCell>
        <mxCell id="nMc6Upp5jJVp4FLjAY4h-92" value="&lt;b&gt;Generic type&lt;/b&gt;" style="text;html=1;align=left;verticalAlign=middle;whiteSpace=wrap;rounded=0;spacingLeft=6;" vertex="1" parent="1">
          <mxGeometry x="40" y="780" width="230" height="20" as="geometry" />
        </mxCell>
        <mxCell id="nMc6Upp5jJVp4FLjAY4h-93" value="type Name&amp;lt;T&amp;gt; = { ... }" style="text;html=1;align=left;verticalAlign=middle;whiteSpace=wrap;rounded=0;spacingLeft=6;" vertex="1" parent="1">
          <mxGeometry x="40" y="800" width="140" height="20" as="geometry" />
        </mxCell>
        <mxCell id="nMc6Upp5jJVp4FLjAY4h-95" value="type Name&amp;lt;T extends SuperType&amp;gt; = { ... }" style="text;html=1;align=left;verticalAlign=middle;whiteSpace=wrap;rounded=0;spacingLeft=6;" vertex="1" parent="1">
          <mxGeometry x="40" y="820" width="240" height="20" as="geometry" />
        </mxCell>
        <mxCell id="nMc6Upp5jJVp4FLjAY4h-96" value="type Name&amp;lt;T extends S1 &amp;amp; S2&amp;gt; = { ... }" style="text;html=1;align=left;verticalAlign=middle;whiteSpace=wrap;rounded=0;spacingLeft=6;" vertex="1" parent="1">
          <mxGeometry x="40" y="840" width="240" height="20" as="geometry" />
        </mxCell>
        <mxCell id="nMc6Upp5jJVp4FLjAY4h-97" value="" style="shape=curlyBracket;whiteSpace=wrap;html=1;rounded=1;flipH=1;labelPosition=right;verticalLabelPosition=middle;align=left;verticalAlign=middle;" vertex="1" parent="1">
          <mxGeometry x="280" y="815" width="20" height="50" as="geometry" />
        </mxCell>
        <mxCell id="nMc6Upp5jJVp4FLjAY4h-98" value="bounded polymorphism" style="text;html=1;align=left;verticalAlign=middle;whiteSpace=wrap;rounded=0;spacingLeft=6;" vertex="1" parent="1">
          <mxGeometry x="300" y="827.5" width="90" height="25" as="geometry" />
        </mxCell>
        <mxCell id="nMc6Upp5jJVp4FLjAY4h-99" value="&lt;b&gt;Generic type defaults&lt;/b&gt;" style="text;html=1;align=left;verticalAlign=middle;whiteSpace=wrap;rounded=0;spacingLeft=6;" vertex="1" parent="1">
          <mxGeometry x="40" y="870" width="230" height="20" as="geometry" />
        </mxCell>
        <mxCell id="nMc6Upp5jJVp4FLjAY4h-100" value="type Name&amp;lt;T = Type&amp;gt; = { ... }" style="text;html=1;align=left;verticalAlign=middle;whiteSpace=wrap;rounded=0;spacingLeft=6;" vertex="1" parent="1">
          <mxGeometry x="40" y="890" width="200" height="20" as="geometry" />
        </mxCell>
        <mxCell id="nMc6Upp5jJVp4FLjAY4h-101" value="abstract ClassName extends SuperClass implements InterfaceName&amp;nbsp;{&lt;div&gt;&lt;span style=&quot;white-space: pre;&quot;&gt;&#x9;&lt;/span&gt;protected &amp;lt;name&amp;gt;: &amp;lt;type&amp;gt;&lt;br&gt;&lt;/div&gt;&lt;div&gt;&lt;span style=&quot;white-space: pre;&quot;&gt;&#x9;&lt;/span&gt;&lt;/div&gt;&lt;div&gt;&lt;span style=&quot;white-space: pre;&quot;&gt;&#x9;&lt;/span&gt;constructor(&lt;br&gt;&lt;/div&gt;&lt;div&gt;&lt;span style=&quot;white-space: pre;&quot;&gt;&#x9;&lt;/span&gt;&lt;span style=&quot;white-space: pre;&quot;&gt;&#x9;&lt;/span&gt;private readonly &amp;lt;name&amp;gt;: &amp;lt;type&amp;gt;&lt;br&gt;&lt;/div&gt;&lt;div&gt;&lt;span style=&quot;white-space: pre;&quot;&gt;&#x9;&lt;/span&gt;)&amp;nbsp;&lt;br&gt;&lt;/div&gt;&lt;div&gt;&lt;span style=&quot;white-space: pre;&quot;&gt;&#x9;&lt;/span&gt;{&lt;/div&gt;&lt;div&gt;&lt;span style=&quot;white-space: pre;&quot;&gt;&#x9;&lt;span style=&quot;white-space: pre;&quot;&gt;&#x9;&lt;/span&gt;&lt;/span&gt;super()&lt;br&gt;&lt;/div&gt;&lt;div&gt;&lt;span style=&quot;white-space: pre;&quot;&gt;&#x9;&lt;/span&gt;}&lt;br&gt;&lt;/div&gt;&lt;div&gt;&lt;br&gt;&lt;/div&gt;&lt;div&gt;&lt;span style=&quot;white-space: pre;&quot;&gt;&#x9;&lt;/span&gt;fn(...): this { }&lt;br&gt;&lt;/div&gt;&lt;div&gt;}&lt;/div&gt;" style="text;html=1;align=left;verticalAlign=middle;whiteSpace=wrap;rounded=0;" vertex="1" parent="1">
          <mxGeometry x="1150" y="80" width="400" height="185" as="geometry" />
        </mxCell>
        <mxCell id="nMc6Upp5jJVp4FLjAY4h-104" value="instance variable" style="text;html=1;align=center;verticalAlign=middle;whiteSpace=wrap;rounded=0;spacingLeft=6;" vertex="1" parent="1">
          <mxGeometry x="1430" y="115" width="50" height="25" as="geometry" />
        </mxCell>
        <mxCell id="nMc6Upp5jJVp4FLjAY4h-105" style="rounded=0;orthogonalLoop=1;jettySize=auto;html=1;exitX=0;exitY=0.5;exitDx=0;exitDy=0;entryX=0.45;entryY=0.154;entryDx=0;entryDy=0;endArrow=oval;endFill=1;dashed=1;dashPattern=1 2;entryPerimeter=0;" edge="1" parent="1" source="nMc6Upp5jJVp4FLjAY4h-104" target="nMc6Upp5jJVp4FLjAY4h-101">
          <mxGeometry relative="1" as="geometry">
            <mxPoint x="1435" y="220" as="sourcePoint" />
            <mxPoint x="1390" y="200" as="targetPoint" />
          </mxGeometry>
        </mxCell>
        <mxCell id="nMc6Upp5jJVp4FLjAY4h-106" value="use &#39;this&#39; as a return type" style="text;html=1;align=center;verticalAlign=middle;whiteSpace=wrap;rounded=0;spacingLeft=6;" vertex="1" parent="1">
          <mxGeometry x="1370" y="225" width="90" height="25" as="geometry" />
        </mxCell>
        <mxCell id="nMc6Upp5jJVp4FLjAY4h-107" style="rounded=0;orthogonalLoop=1;jettySize=auto;html=1;exitX=0;exitY=0.5;exitDx=0;exitDy=0;endArrow=oval;endFill=1;dashed=1;dashPattern=1 2;entryX=0.458;entryY=0.851;entryDx=0;entryDy=0;entryPerimeter=0;" edge="1" parent="1" source="nMc6Upp5jJVp4FLjAY4h-106" target="nMc6Upp5jJVp4FLjAY4h-101">
          <mxGeometry relative="1" as="geometry">
            <mxPoint x="1440" y="113" as="sourcePoint" />
            <mxPoint x="1250" y="285" as="targetPoint" />
          </mxGeometry>
        </mxCell>
        <mxCell id="nMc6Upp5jJVp4FLjAY4h-108" value="method calls: super.&amp;lt;fn name&amp;gt;&lt;div&gt;can&#39;t access parent class properties&lt;/div&gt;" style="text;html=1;align=left;verticalAlign=middle;whiteSpace=wrap;rounded=0;spacingLeft=6;" vertex="1" parent="1">
          <mxGeometry x="1430" y="35" width="210" height="30" as="geometry" />
        </mxCell>
        <mxCell id="nMc6Upp5jJVp4FLjAY4h-109" style="rounded=0;orthogonalLoop=1;jettySize=auto;html=1;exitX=0;exitY=0.5;exitDx=0;exitDy=0;endArrow=oval;endFill=1;dashed=1;dashPattern=1 2;entryX=0.464;entryY=0.01;entryDx=0;entryDy=0;entryPerimeter=0;" edge="1" parent="1" source="nMc6Upp5jJVp4FLjAY4h-108" target="nMc6Upp5jJVp4FLjAY4h-101">
          <mxGeometry relative="1" as="geometry">
            <mxPoint x="1440" y="113" as="sourcePoint" />
            <mxPoint x="1340" y="118" as="targetPoint" />
          </mxGeometry>
        </mxCell>
        <mxCell id="nMc6Upp5jJVp4FLjAY4h-110" value="&lt;b&gt;Access modifiers:&lt;/b&gt;&lt;div&gt;- private&lt;/div&gt;&lt;div&gt;&lt;span style=&quot;background-color: initial;&quot;&gt;- protected (accessible from class and subclass)&lt;/span&gt;&lt;/div&gt;&lt;div&gt;&lt;span style=&quot;background-color: initial;&quot;&gt;- public (default)&lt;/span&gt;&lt;/div&gt;" style="text;html=1;align=left;verticalAlign=middle;whiteSpace=wrap;rounded=0;spacingLeft=6;" vertex="1" parent="1">
          <mxGeometry x="960" y="170" width="150" height="90" as="geometry" />
        </mxCell>
        <mxCell id="nMc6Upp5jJVp4FLjAY4h-111" style="rounded=0;orthogonalLoop=1;jettySize=auto;html=1;exitX=0.25;exitY=0;exitDx=0;exitDy=0;endArrow=oval;endFill=1;dashed=1;dashPattern=1 2;entryX=0;entryY=0.25;entryDx=0;entryDy=0;" edge="1" parent="1" source="nMc6Upp5jJVp4FLjAY4h-110" target="nMc6Upp5jJVp4FLjAY4h-101">
          <mxGeometry relative="1" as="geometry">
            <mxPoint x="1380" y="248" as="sourcePoint" />
            <mxPoint x="1343" y="247" as="targetPoint" />
          </mxGeometry>
        </mxCell>
        <mxCell id="nMc6Upp5jJVp4FLjAY4h-112" value="use a private constructor to make the class final" style="text;html=1;align=center;verticalAlign=middle;whiteSpace=wrap;rounded=0;spacingLeft=6;" vertex="1" parent="1">
          <mxGeometry x="1450" y="155" width="150" height="50" as="geometry" />
        </mxCell>
        <mxCell id="nMc6Upp5jJVp4FLjAY4h-113" style="rounded=0;orthogonalLoop=1;jettySize=auto;html=1;exitX=0.025;exitY=0.524;exitDx=0;exitDy=0;endArrow=oval;endFill=1;dashed=1;dashPattern=1 2;entryX=0.6;entryY=0.432;entryDx=0;entryDy=0;entryPerimeter=0;exitPerimeter=0;" edge="1" parent="1" source="nMc6Upp5jJVp4FLjAY4h-112" target="nMc6Upp5jJVp4FLjAY4h-101">
          <mxGeometry relative="1" as="geometry">
            <mxPoint x="1380" y="248" as="sourcePoint" />
            <mxPoint x="1343" y="247" as="targetPoint" />
          </mxGeometry>
        </mxCell>
        <mxCell id="nMc6Upp5jJVp4FLjAY4h-114" value="interface MyInterface extends &amp;lt;name&amp;gt; {&lt;div&gt;&lt;span style=&quot;white-space: pre;&quot;&gt;&#x9;&lt;/span&gt;&amp;lt;field name&amp;gt;: &amp;lt;type&amp;gt;&lt;br&gt;&lt;/div&gt;&lt;div&gt;}&lt;/div&gt;" style="text;html=1;align=left;verticalAlign=middle;whiteSpace=wrap;rounded=0;" vertex="1" parent="1">
          <mxGeometry x="1150" y="352.5" width="230" height="60" as="geometry" />
        </mxCell>
        <mxCell id="nMc6Upp5jJVp4FLjAY4h-115" value="can&#39;t use access modifiers" style="text;html=1;align=center;verticalAlign=middle;whiteSpace=wrap;rounded=0;spacingLeft=6;" vertex="1" parent="1">
          <mxGeometry x="1420" y="365" width="100" height="35" as="geometry" />
        </mxCell>
        <mxCell id="nMc6Upp5jJVp4FLjAY4h-116" style="rounded=0;orthogonalLoop=1;jettySize=auto;html=1;exitX=0;exitY=0.5;exitDx=0;exitDy=0;endArrow=oval;endFill=1;dashed=1;dashPattern=1 2;entryX=0.652;entryY=0.467;entryDx=0;entryDy=0;entryPerimeter=0;" edge="1" parent="1" source="nMc6Upp5jJVp4FLjAY4h-115" target="nMc6Upp5jJVp4FLjAY4h-114">
          <mxGeometry relative="1" as="geometry">
            <mxPoint x="1380" y="248" as="sourcePoint" />
            <mxPoint x="1343" y="247" as="targetPoint" />
          </mxGeometry>
        </mxCell>
        <mxCell id="nMc6Upp5jJVp4FLjAY4h-117" value="&lt;b&gt;Declaration merging&lt;/b&gt; -- multiple interfaces with the same name are merged" style="text;html=1;align=left;verticalAlign=middle;whiteSpace=wrap;rounded=0;spacingLeft=6;" vertex="1" parent="1">
          <mxGeometry x="1140" y="410" width="440" height="30" as="geometry" />
        </mxCell>
        <mxCell id="nMc6Upp5jJVp4FLjAY4h-118" value="can use generics" style="text;html=1;align=center;verticalAlign=middle;whiteSpace=wrap;rounded=0;spacingLeft=6;" vertex="1" parent="1">
          <mxGeometry x="1310" y="320" width="100" height="35" as="geometry" />
        </mxCell>
        <mxCell id="nMc6Upp5jJVp4FLjAY4h-119" style="rounded=0;orthogonalLoop=1;jettySize=auto;html=1;exitX=0;exitY=0.5;exitDx=0;exitDy=0;endArrow=oval;endFill=1;dashed=1;dashPattern=1 2;entryX=0.5;entryY=0;entryDx=0;entryDy=0;" edge="1" parent="1" source="nMc6Upp5jJVp4FLjAY4h-118" target="nMc6Upp5jJVp4FLjAY4h-114">
          <mxGeometry relative="1" as="geometry">
            <mxPoint x="1380" y="248" as="sourcePoint" />
            <mxPoint x="1343" y="247" as="targetPoint" />
          </mxGeometry>
        </mxCell>
        <mxCell id="nMc6Upp5jJVp4FLjAY4h-120" value="class MyException extends RangeError { }" style="text;html=1;align=left;verticalAlign=middle;whiteSpace=wrap;rounded=0;spacingLeft=6;" vertex="1" parent="1">
          <mxGeometry x="1140" y="480" width="250" height="20" as="geometry" />
        </mxCell>
        <mxCell id="nMc6Upp5jJVp4FLjAY4h-121" value="custom exception" style="text;html=1;align=left;verticalAlign=middle;whiteSpace=wrap;rounded=0;spacingLeft=6;" vertex="1" parent="1">
          <mxGeometry x="1475" y="481.25" width="120" height="17.5" as="geometry" />
        </mxCell>
        <mxCell id="nMc6Upp5jJVp4FLjAY4h-122" style="rounded=0;orthogonalLoop=1;jettySize=auto;html=1;exitX=0;exitY=0.5;exitDx=0;exitDy=0;endArrow=oval;endFill=1;dashed=1;dashPattern=1 2;entryX=1;entryY=0.5;entryDx=0;entryDy=0;" edge="1" parent="1" source="nMc6Upp5jJVp4FLjAY4h-121" target="nMc6Upp5jJVp4FLjAY4h-120">
          <mxGeometry relative="1" as="geometry">
            <mxPoint x="1463" y="211" as="sourcePoint" />
            <mxPoint x="1400" y="190" as="targetPoint" />
          </mxGeometry>
        </mxCell>
        <mxCell id="nMc6Upp5jJVp4FLjAY4h-123" value="&lt;b&gt;Exceptions&lt;/b&gt;" style="text;html=1;align=left;verticalAlign=middle;whiteSpace=wrap;rounded=0;spacingLeft=6;" vertex="1" parent="1">
          <mxGeometry x="1140" y="460" width="90" height="20" as="geometry" />
        </mxCell>
        <mxCell id="nMc6Upp5jJVp4FLjAY4h-126" value="&lt;b&gt;Named function&lt;/b&gt;" style="text;html=1;align=left;verticalAlign=middle;whiteSpace=wrap;rounded=0;spacingLeft=6;" vertex="1" parent="1">
          <mxGeometry x="40" y="498.75" width="230" height="20" as="geometry" />
        </mxCell>
        <mxCell id="nMc6Upp5jJVp4FLjAY4h-127" value="function Fn(&amp;lt;parameter&amp;gt;: &amp;lt;type&amp;gt;): &amp;lt;return type&amp;gt; { ... }" style="text;html=1;align=left;verticalAlign=middle;whiteSpace=wrap;rounded=0;spacingLeft=6;" vertex="1" parent="1">
          <mxGeometry x="40" y="518.75" width="350" height="21.25" as="geometry" />
        </mxCell>
        <mxCell id="nMc6Upp5jJVp4FLjAY4h-128" value="&lt;b&gt;Function expression&lt;/b&gt;" style="text;html=1;align=left;verticalAlign=middle;whiteSpace=wrap;rounded=0;spacingLeft=6;" vertex="1" parent="1">
          <mxGeometry x="40" y="550" width="230" height="20" as="geometry" />
        </mxCell>
        <mxCell id="nMc6Upp5jJVp4FLjAY4h-129" value="let Fn = function(&amp;lt;parameter&amp;gt;: &amp;lt;type&amp;gt;): &amp;lt;return type&amp;gt; { ... }" style="text;html=1;align=left;verticalAlign=middle;whiteSpace=wrap;rounded=0;spacingLeft=6;" vertex="1" parent="1">
          <mxGeometry x="40" y="570" width="350" height="21.25" as="geometry" />
        </mxCell>
        <mxCell id="nMc6Upp5jJVp4FLjAY4h-130" value="&lt;b&gt;Arrow function expression&lt;/b&gt;" style="text;html=1;align=left;verticalAlign=middle;whiteSpace=wrap;rounded=0;spacingLeft=6;" vertex="1" parent="1">
          <mxGeometry x="40" y="600" width="230" height="20" as="geometry" />
        </mxCell>
        <mxCell id="nMc6Upp5jJVp4FLjAY4h-131" value="let Fn = (&amp;lt;parameter&amp;gt;: &amp;lt;type&amp;gt;): &amp;lt;return type&amp;gt; =&amp;gt; { ... }" style="text;html=1;align=left;verticalAlign=middle;whiteSpace=wrap;rounded=0;spacingLeft=6;" vertex="1" parent="1">
          <mxGeometry x="40" y="620" width="350" height="21.25" as="geometry" />
        </mxCell>
        <mxCell id="nMc6Upp5jJVp4FLjAY4h-132" value="" style="shape=curlyBracket;whiteSpace=wrap;html=1;rounded=1;flipH=1;labelPosition=right;verticalLabelPosition=middle;align=left;verticalAlign=middle;" vertex="1" parent="1">
          <mxGeometry x="380" y="500" width="20" height="150" as="geometry" />
        </mxCell>
        <mxCell id="nMc6Upp5jJVp4FLjAY4h-133" value="&lt;b&gt;Optional parameter:&lt;/b&gt; &amp;lt;parameter&amp;gt;?: &amp;lt;type&amp;gt;" style="text;html=1;align=left;verticalAlign=middle;whiteSpace=wrap;rounded=0;spacingLeft=6;" vertex="1" parent="1">
          <mxGeometry x="400" y="528.75" width="350" height="21.25" as="geometry" />
        </mxCell>
        <mxCell id="nMc6Upp5jJVp4FLjAY4h-134" value="&lt;b&gt;Default parameter:&lt;/b&gt;" style="text;html=1;align=left;verticalAlign=middle;whiteSpace=wrap;rounded=0;spacingLeft=6;" vertex="1" parent="1">
          <mxGeometry x="400" y="560" width="350" height="21.25" as="geometry" />
        </mxCell>
        <mxCell id="nMc6Upp5jJVp4FLjAY4h-135" value="&amp;lt;parameter&amp;gt; = &amp;lt;value&amp;gt;" style="text;html=1;align=left;verticalAlign=middle;whiteSpace=wrap;rounded=0;spacingLeft=6;" vertex="1" parent="1">
          <mxGeometry x="400" y="579.38" width="140" height="21.25" as="geometry" />
        </mxCell>
        <mxCell id="nMc6Upp5jJVp4FLjAY4h-136" value="&amp;lt;parameter&amp;gt;: &amp;lt;type&amp;gt; = &amp;lt;value&amp;gt;" style="text;html=1;align=left;verticalAlign=middle;whiteSpace=wrap;rounded=0;spacingLeft=6;" vertex="1" parent="1">
          <mxGeometry x="400" y="599.38" width="180" height="21.25" as="geometry" />
        </mxCell>
        <mxCell id="nMc6Upp5jJVp4FLjAY4h-137" value="&lt;b&gt;Variadic function&lt;/b&gt;" style="text;html=1;align=left;verticalAlign=middle;whiteSpace=wrap;rounded=0;spacingLeft=6;" vertex="1" parent="1">
          <mxGeometry x="680" y="498.75" width="230" height="20" as="geometry" />
        </mxCell>
        <mxCell id="nMc6Upp5jJVp4FLjAY4h-138" value="function(...&amp;lt;name&amp;gt;: &amp;lt;type&amp;gt; = [ ]): &amp;lt;return type&amp;gt; { }" style="text;html=1;align=left;verticalAlign=middle;whiteSpace=wrap;rounded=0;spacingLeft=6;" vertex="1" parent="1">
          <mxGeometry x="680" y="518.75" width="350" height="21.25" as="geometry" />
        </mxCell>
        <mxCell id="nMc6Upp5jJVp4FLjAY4h-139" value="the ...&amp;lt;name&amp;gt; has to be the last in the list of parameters" style="text;html=1;align=center;verticalAlign=middle;whiteSpace=wrap;rounded=0;spacingLeft=6;" vertex="1" parent="1">
          <mxGeometry x="710" y="550.63" width="190" height="40" as="geometry" />
        </mxCell>
        <mxCell id="nMc6Upp5jJVp4FLjAY4h-140" style="rounded=0;orthogonalLoop=1;jettySize=auto;html=1;exitX=0.5;exitY=0;exitDx=0;exitDy=0;entryX=0.25;entryY=1;entryDx=0;entryDy=0;endArrow=oval;endFill=1;dashed=1;dashPattern=1 2;" edge="1" parent="1" source="nMc6Upp5jJVp4FLjAY4h-139" target="nMc6Upp5jJVp4FLjAY4h-138">
          <mxGeometry relative="1" as="geometry">
            <mxPoint x="680" y="488" as="sourcePoint" />
            <mxPoint x="560" y="400" as="targetPoint" />
          </mxGeometry>
        </mxCell>
        <mxCell id="nMc6Upp5jJVp4FLjAY4h-141" value="return type is optional" style="text;html=1;align=center;verticalAlign=middle;whiteSpace=wrap;rounded=0;spacingLeft=6;" vertex="1" parent="1">
          <mxGeometry x="240" y="478.75" width="140" height="20" as="geometry" />
        </mxCell>
        <mxCell id="nMc6Upp5jJVp4FLjAY4h-142" style="rounded=0;orthogonalLoop=1;jettySize=auto;html=1;exitX=0.5;exitY=1;exitDx=0;exitDy=0;entryX=0.75;entryY=0;entryDx=0;entryDy=0;endArrow=oval;endFill=1;dashed=1;dashPattern=1 2;" edge="1" parent="1" source="nMc6Upp5jJVp4FLjAY4h-141" target="nMc6Upp5jJVp4FLjAY4h-127">
          <mxGeometry relative="1" as="geometry">
            <mxPoint x="775" y="565" as="sourcePoint" />
            <mxPoint x="778" y="550" as="targetPoint" />
          </mxGeometry>
        </mxCell>
        <mxCell id="nMc6Upp5jJVp4FLjAY4h-143" value="&lt;b&gt;Generator function&lt;/b&gt;" style="text;html=1;align=left;verticalAlign=middle;whiteSpace=wrap;rounded=0;spacingLeft=6;" vertex="1" parent="1">
          <mxGeometry x="680" y="601.25" width="230" height="20" as="geometry" />
        </mxCell>
        <mxCell id="nMc6Upp5jJVp4FLjAY4h-144" value="function* fn() {&amp;nbsp;&lt;div&gt;&lt;span style=&quot;white-space: pre;&quot;&gt;&#x9;&lt;/span&gt;yield &amp;lt;value&amp;gt;&lt;br&gt;&lt;/div&gt;&lt;div&gt;}&lt;/div&gt;" style="text;html=1;align=left;verticalAlign=middle;whiteSpace=wrap;rounded=0;spacingLeft=6;" vertex="1" parent="1">
          <mxGeometry x="680" y="621.25" width="120" height="48.75" as="geometry" />
        </mxCell>
        <mxCell id="nMc6Upp5jJVp4FLjAY4h-145" value="returns an IterableIterator&amp;lt;type&amp;gt;" style="text;html=1;align=center;verticalAlign=middle;whiteSpace=wrap;rounded=0;spacingLeft=6;" vertex="1" parent="1">
          <mxGeometry x="822" y="641.25" width="193" height="18.75" as="geometry" />
        </mxCell>
        <mxCell id="nMc6Upp5jJVp4FLjAY4h-146" style="rounded=0;orthogonalLoop=1;jettySize=auto;html=1;exitX=0;exitY=0.5;exitDx=0;exitDy=0;endArrow=oval;endFill=1;dashed=1;dashPattern=1 2;entryX=1;entryY=0.5;entryDx=0;entryDy=0;" edge="1" parent="1" source="nMc6Upp5jJVp4FLjAY4h-145" target="nMc6Upp5jJVp4FLjAY4h-144">
          <mxGeometry relative="1" as="geometry">
            <mxPoint x="795" y="565" as="sourcePoint" />
            <mxPoint x="778" y="550" as="targetPoint" />
          </mxGeometry>
        </mxCell>
        <mxCell id="nMc6Upp5jJVp4FLjAY4h-148" value="&lt;b&gt;Iterator&lt;/b&gt;" style="text;html=1;align=left;verticalAlign=middle;whiteSpace=wrap;rounded=0;spacingLeft=6;" vertex="1" parent="1">
          <mxGeometry x="680" y="680" width="230" height="20" as="geometry" />
        </mxCell>
        <mxCell id="nMc6Upp5jJVp4FLjAY4h-149" value=".next() method" style="text;html=1;align=left;verticalAlign=middle;whiteSpace=wrap;rounded=0;spacingLeft=6;" vertex="1" parent="1">
          <mxGeometry x="680" y="701.25" width="190" height="18.75" as="geometry" />
        </mxCell>
        <mxCell id="nMc6Upp5jJVp4FLjAY4h-150" value="&lt;b&gt;Call signature&lt;/b&gt;" style="text;html=1;align=left;verticalAlign=middle;whiteSpace=wrap;rounded=0;spacingLeft=6;" vertex="1" parent="1">
          <mxGeometry x="680" y="795" width="230" height="20" as="geometry" />
        </mxCell>
        <mxCell id="nMc6Upp5jJVp4FLjAY4h-151" value="Short-hand: type Fn = (&amp;lt;parameter&amp;gt;: &amp;lt;type&amp;gt;) =&amp;gt; &amp;lt;return type&amp;gt;" style="text;html=1;align=left;verticalAlign=middle;whiteSpace=wrap;rounded=0;spacingLeft=6;" vertex="1" parent="1">
          <mxGeometry x="680" y="820" width="380" height="30" as="geometry" />
        </mxCell>
        <mxCell id="nMc6Upp5jJVp4FLjAY4h-152" value="Full: type Fn = {&lt;div&gt;&lt;span style=&quot;white-space: pre;&quot;&gt;&#x9;&lt;/span&gt;(&amp;lt;parameter&amp;gt;: &amp;lt;type&amp;gt;) =&amp;gt; &amp;lt;return type&amp;gt;&lt;br&gt;&lt;/div&gt;&lt;div&gt;}&lt;/div&gt;" style="text;html=1;align=left;verticalAlign=middle;whiteSpace=wrap;rounded=0;spacingLeft=6;" vertex="1" parent="1">
          <mxGeometry x="680" y="850" width="380" height="50" as="geometry" />
        </mxCell>
        <mxCell id="nMc6Upp5jJVp4FLjAY4h-153" value="&lt;b&gt;Enums&lt;/b&gt;" style="text;html=1;align=left;verticalAlign=middle;whiteSpace=wrap;rounded=0;spacingLeft=6;" vertex="1" parent="1">
          <mxGeometry x="1140" y="558.75" width="90" height="20" as="geometry" />
        </mxCell>
        <mxCell id="nMc6Upp5jJVp4FLjAY4h-154" value="const enum &amp;lt;name&amp;gt; {&lt;div&gt;&lt;span style=&quot;white-space: pre;&quot;&gt;&#x9;&lt;/span&gt;&amp;lt;sub name&amp;gt; = &amp;lt;value&amp;gt;&lt;/div&gt;&lt;div&gt;}&lt;/div&gt;" style="text;html=1;align=left;verticalAlign=middle;whiteSpace=wrap;rounded=0;" vertex="1" parent="1">
          <mxGeometry x="1150" y="579.38" width="170" height="51.25" as="geometry" />
        </mxCell>
        <mxCell id="nMc6Upp5jJVp4FLjAY4h-155" value="&amp;lt;value&amp;gt; is optional (use a string or number, but string is safer)" style="text;html=1;align=center;verticalAlign=middle;whiteSpace=wrap;rounded=0;spacingLeft=6;" vertex="1" parent="1">
          <mxGeometry x="1370" y="579.38" width="190" height="40" as="geometry" />
        </mxCell>
        <mxCell id="nMc6Upp5jJVp4FLjAY4h-156" style="rounded=0;orthogonalLoop=1;jettySize=auto;html=1;exitX=0;exitY=0.5;exitDx=0;exitDy=0;endArrow=oval;endFill=1;dashed=1;dashPattern=1 2;entryX=1;entryY=0.5;entryDx=0;entryDy=0;" edge="1" parent="1" source="nMc6Upp5jJVp4FLjAY4h-155" target="nMc6Upp5jJVp4FLjAY4h-154">
          <mxGeometry relative="1" as="geometry">
            <mxPoint x="1485" y="500.63" as="sourcePoint" />
            <mxPoint x="1340" y="560.63" as="targetPoint" />
          </mxGeometry>
        </mxCell>
        <mxCell id="nMc6Upp5jJVp4FLjAY4h-157" value="&amp;lt;name&amp;gt;.&amp;lt;sub name&amp;gt;&lt;div&gt;&amp;lt;name&amp;gt;[&#39;&amp;lt;sub name&amp;gt;&#39;]&lt;/div&gt;" style="text;html=1;align=left;verticalAlign=middle;whiteSpace=wrap;rounded=0;" vertex="1" parent="1">
          <mxGeometry x="1150" y="630.63" width="170" height="51.25" as="geometry" />
        </mxCell>
        <mxCell id="nMc6Upp5jJVp4FLjAY4h-158" value="" style="shape=curlyBracket;whiteSpace=wrap;html=1;rounded=1;flipH=1;labelPosition=right;verticalLabelPosition=middle;align=left;verticalAlign=middle;" vertex="1" parent="1">
          <mxGeometry x="1290" y="639.38" width="20" height="40" as="geometry" />
        </mxCell>
        <mxCell id="nMc6Upp5jJVp4FLjAY4h-159" value="retrieve a value" style="text;html=1;align=left;verticalAlign=middle;whiteSpace=wrap;rounded=0;spacingLeft=6;" vertex="1" parent="1">
          <mxGeometry x="1310" y="650.01" width="100" height="18.75" as="geometry" />
        </mxCell>
        <mxCell id="nMc6Upp5jJVp4FLjAY4h-161" value="throw exception" style="text;html=1;align=left;verticalAlign=middle;whiteSpace=wrap;rounded=0;spacingLeft=6;" vertex="1" parent="1">
          <mxGeometry x="1140" y="500" width="110" height="20" as="geometry" />
        </mxCell>
        <mxCell id="nMc6Upp5jJVp4FLjAY4h-163" value="return exception" style="text;html=1;align=left;verticalAlign=middle;whiteSpace=wrap;rounded=0;spacingLeft=6;" vertex="1" parent="1">
          <mxGeometry x="1140" y="518.75" width="110" height="20" as="geometry" />
        </mxCell>
        <mxCell id="nMc6Upp5jJVp4FLjAY4h-164" style="rounded=0;orthogonalLoop=1;jettySize=auto;html=1;exitX=0;exitY=0.5;exitDx=0;exitDy=0;endArrow=oval;endFill=1;dashed=1;dashPattern=1 2;entryX=1;entryY=0.5;entryDx=0;entryDy=0;" edge="1" parent="1" source="nMc6Upp5jJVp4FLjAY4h-165" target="nMc6Upp5jJVp4FLjAY4h-163">
          <mxGeometry relative="1" as="geometry">
            <mxPoint x="1485" y="500" as="sourcePoint" />
            <mxPoint x="1400" y="500" as="targetPoint" />
          </mxGeometry>
        </mxCell>
        <mxCell id="nMc6Upp5jJVp4FLjAY4h-165" value="force consumer to specifically handle the exceptions" style="text;html=1;align=left;verticalAlign=middle;whiteSpace=wrap;rounded=0;spacingLeft=6;" vertex="1" parent="1">
          <mxGeometry x="1280" y="520" width="290" height="17.5" as="geometry" />
        </mxCell>
        <mxCell id="nMc6Upp5jJVp4FLjAY4h-167" value="&lt;b&gt;Interface&lt;/b&gt;" style="text;html=1;align=left;verticalAlign=middle;whiteSpace=wrap;rounded=0;spacingLeft=6;" vertex="1" parent="1">
          <mxGeometry x="1140" y="335" width="90" height="20" as="geometry" />
        </mxCell>
        <mxCell id="nMc6Upp5jJVp4FLjAY4h-178" value="returns an object with this structure" style="text;html=1;align=center;verticalAlign=middle;whiteSpace=wrap;rounded=0;spacingLeft=6;" vertex="1" parent="1">
          <mxGeometry x="847" y="730" width="143" height="30" as="geometry" />
        </mxCell>
        <mxCell id="nMc6Upp5jJVp4FLjAY4h-179" value="&lt;div&gt;{&lt;/div&gt;&lt;div&gt;&lt;span style=&quot;white-space: pre;&quot;&gt;&#x9;&lt;/span&gt;value: _,&lt;br&gt;&lt;/div&gt;&lt;div&gt;&lt;span style=&quot;white-space: pre;&quot;&gt;&#x9;&lt;/span&gt;done: &amp;lt;boolean&amp;gt;&lt;br&gt;&lt;/div&gt;&lt;div&gt;}&lt;/div&gt;" style="text;html=1;align=left;verticalAlign=middle;whiteSpace=wrap;rounded=0;spacingLeft=6;" vertex="1" parent="1">
          <mxGeometry x="680" y="723.13" width="130" height="58.75" as="geometry" />
        </mxCell>
        <mxCell id="nMc6Upp5jJVp4FLjAY4h-181" style="rounded=0;orthogonalLoop=1;jettySize=auto;html=1;exitX=0;exitY=0.5;exitDx=0;exitDy=0;endArrow=oval;endFill=1;dashed=1;dashPattern=1 2;entryX=1;entryY=0.5;entryDx=0;entryDy=0;" edge="1" parent="1" source="nMc6Upp5jJVp4FLjAY4h-178" target="nMc6Upp5jJVp4FLjAY4h-179">
          <mxGeometry relative="1" as="geometry">
            <mxPoint x="827" y="639" as="sourcePoint" />
            <mxPoint x="810" y="656" as="targetPoint" />
          </mxGeometry>
        </mxCell>
      </root>
    </mxGraphModel>
  </diagram>
</mxfile>
